{
    "asset" : {
        "copyright" : "Copyright \u00a9 Zerocker 2020",
        "generator" : "Khronos glTF Blender I/O v1.3.48",
        "version" : "2.0"
    },
    "scene" : 0,
    "scenes" : [
        {
            "name" : "Scene",
            "nodes" : [
                0
            ]
        }
    ],
    "nodes" : [
        {
            "mesh" : 0,
            "name" : "neon_nuao"
        }
    ],
    "materials" : [
        {
            "doubleSided" : true,
            "emissiveFactor" : [
                0,
                0,
                0
            ],
            "name" : "neon_nuao",
            "pbrMetallicRoughness" : {
                "baseColorTexture" : {
                    "index" : 0,
                    "texCoord" : 0
                },
                "metallicFactor" : 0,
                "roughnessFactor" : 0.5
            }
        }
    ],
    "meshes" : [
        {
            "name" : "neon_nuao",
            "primitives" : [
                {
                    "attributes" : {
                        "POSITION" : 0,
                        "NORMAL" : 1,
                        "TEXCOORD_0" : 2
                    },
                    "indices" : 3,
                    "material" : 0
                }
            ]
        }
    ],
    "textures" : [
        {
            "sampler" : 0,
            "source" : 0
        }
    ],
    "images" : [
        {
            "bufferView" : 4,
            "mimeType" : "image/png",
            "name" : "neon_nuao"
        }
    ],
    "accessors" : [
        {
            "bufferView" : 0,
            "componentType" : 5126,
            "count" : 467,
            "max" : [
                0.625,
                1.375,
                6.010316155879991e-08
            ],
            "min" : [
                -0.625,
                -1.375,
                -0.06250005960464478
            ],
            "type" : "VEC3"
        },
        {
            "bufferView" : 1,
            "componentType" : 5126,
            "count" : 467,
            "type" : "VEC3"
        },
        {
            "bufferView" : 2,
            "componentType" : 5126,
            "count" : 467,
            "type" : "VEC2"
        },
        {
            "bufferView" : 3,
            "componentType" : 5123,
            "count" : 624,
            "type" : "SCALAR"
        }
    ],
    "bufferViews" : [
        {
            "buffer" : 0,
            "byteLength" : 5604,
            "byteOffset" : 0
        },
        {
            "buffer" : 0,
            "byteLength" : 5604,
            "byteOffset" : 5604
        },
        {
            "buffer" : 0,
            "byteLength" : 3736,
            "byteOffset" : 11208
        },
        {
            "buffer" : 0,
            "byteLength" : 1248,
            "byteOffset" : 14944
        },
        {
            "buffer" : 0,
            "byteLength" : 1240,
            "byteOffset" : 16192
        }
    ],
    "samplers" : [
        {
            "magFilter" : 9728,
            "minFilter" : 9984
        }
    ],
    "buffers" : [
        {
            "byteLength" : 17432,
            "uri" : "data:application/octet-stream;base64,"
        }
    ]
}
