{
    "asset" : {
        "copyright" : "Copyright \u00a9 Zerocker 2020",
        "generator" : "Khronos glTF Blender I/O v1.3.48",
        "version" : "2.0"
    },
    "scene" : 0,
    "scenes" : [
        {
            "name" : "Scene",
            "nodes" : [
                0
            ]
        }
    ],
    "nodes" : [
        {
            "mesh" : 0,
            "name" : "neon_frame_dao"
        }
    ],
    "materials" : [
        {
            "doubleSided" : true,
            "emissiveFactor" : [
                0,
                0,
                0
            ],
            "name" : "neon_frame_dao",
            "pbrMetallicRoughness" : {
                "baseColorTexture" : {
                    "index" : 0,
                    "texCoord" : 0
                },
                "metallicFactor" : 0,
                "roughnessFactor" : 0.5
            }
        }
    ],
    "meshes" : [
        {
            "name" : "neon_frame_dao",
            "primitives" : [
                {
                    "attributes" : {
                        "POSITION" : 0,
                        "NORMAL" : 1,
                        "TEXCOORD_0" : 2
                    },
                    "indices" : 3,
                    "material" : 0
                }
            ]
        }
    ],
    "textures" : [
        {
            "sampler" : 0,
            "source" : 0
        }
    ],
    "images" : [
        {
            "bufferView" : 4,
            "mimeType" : "image/png",
            "name" : "neon_frame_dao"
        }
    ],
    "accessors" : [
        {
            "bufferView" : 0,
            "componentType" : 5126,
            "count" : 727,
            "max" : [
                -1.1875,
                1.4375001192092896,
                -1.1874998807907104
            ],
            "min" : [
                -2,
                -2,
                -2
            ],
            "type" : "VEC3"
        },
        {
            "bufferView" : 1,
            "componentType" : 5126,
            "count" : 727,
            "type" : "VEC3"
        },
        {
            "bufferView" : 2,
            "componentType" : 5126,
            "count" : 727,
            "type" : "VEC2"
        },
        {
            "bufferView" : 3,
            "componentType" : 5123,
            "count" : 1128,
            "type" : "SCALAR"
        }
    ],
    "bufferViews" : [
        {
            "buffer" : 0,
            "byteLength" : 8724,
            "byteOffset" : 0
        },
        {
            "buffer" : 0,
            "byteLength" : 8724,
            "byteOffset" : 8724
        },
        {
            "buffer" : 0,
            "byteLength" : 5816,
            "byteOffset" : 17448
        },
        {
            "buffer" : 0,
            "byteLength" : 2256,
            "byteOffset" : 23264
        },
        {
            "buffer" : 0,
            "byteLength" : 1350,
            "byteOffset" : 25520
        }
    ],
    "samplers" : [
        {
            "magFilter" : 9728,
            "minFilter" : 9984
        }
    ],
    "buffers" : [
        {
            "byteLength" : 26872,
            "uri" : "data:application/octet-stream;base64,"
        }
    ]
}
