{
    "asset" : {
        "copyright" : "Copyright \u00a9 Zerocker 2020",
        "generator" : "Khronos glTF Blender I/O v1.3.48",
        "version" : "2.0"
    },
    "scene" : 0,
    "scenes" : [
        {
            "name" : "Scene",
            "nodes" : [
                0
            ]
        }
    ],
    "nodes" : [
        {
            "mesh" : 0,
            "name" : "squid_statue_smallao"
        }
    ],
    "materials" : [
        {
            "doubleSided" : true,
            "emissiveFactor" : [
                0,
                0,
                0
            ],
            "name" : "squid_statue_smallao",
            "pbrMetallicRoughness" : {
                "baseColorTexture" : {
                    "index" : 0,
                    "texCoord" : 0
                },
                "metallicFactor" : 0,
                "roughnessFactor" : 0.5
            }
        }
    ],
    "meshes" : [
        {
            "name" : "squid_statue_smallao",
            "primitives" : [
                {
                    "attributes" : {
                        "POSITION" : 0,
                        "NORMAL" : 1,
                        "TEXCOORD_0" : 2
                    },
                    "indices" : 3,
                    "material" : 0
                }
            ]
        }
    ],
    "textures" : [
        {
            "sampler" : 0,
            "source" : 0
        }
    ],
    "images" : [
        {
            "bufferView" : 4,
            "mimeType" : "image/png",
            "name" : "squid_statue_smallao"
        }
    ],
    "accessors" : [
        {
            "bufferView" : 0,
            "componentType" : 5126,
            "count" : 1515,
            "max" : [
                1.5,
                1.6875,
                1.3749998807907104
            ],
            "min" : [
                -1.375,
                -3.625,
                -1.5000001192092896
            ],
            "type" : "VEC3"
        },
        {
            "bufferView" : 1,
            "componentType" : 5126,
            "count" : 1515,
            "type" : "VEC3"
        },
        {
            "bufferView" : 2,
            "componentType" : 5126,
            "count" : 1515,
            "type" : "VEC2"
        },
        {
            "bufferView" : 3,
            "componentType" : 5123,
            "count" : 2220,
            "type" : "SCALAR"
        }
    ],
    "bufferViews" : [
        {
            "buffer" : 0,
            "byteLength" : 18180,
            "byteOffset" : 0
        },
        {
            "buffer" : 0,
            "byteLength" : 18180,
            "byteOffset" : 18180
        },
        {
            "buffer" : 0,
            "byteLength" : 12120,
            "byteOffset" : 36360
        },
        {
            "buffer" : 0,
            "byteLength" : 4440,
            "byteOffset" : 48480
        },
        {
            "buffer" : 0,
            "byteLength" : 4110,
            "byteOffset" : 52920
        }
    ],
    "samplers" : [
        {
            "magFilter" : 9728,
            "minFilter" : 9984
        }
    ],
    "buffers" : [
        {
            "byteLength" : 57032,
            "uri" : "data:application/octet-stream;base64,"
        }
    ]
}
