{
    "asset" : {
        "copyright" : "Copyright \u00a9 Zerocker 2020",
        "generator" : "Khronos glTF Blender I/O v1.3.48",
        "version" : "2.0"
    },
    "scene" : 0,
    "scenes" : [
        {
            "name" : "Scene",
            "nodes" : [
                0
            ]
        }
    ],
    "nodes" : [
        {
            "mesh" : 0,
            "name" : "zu_kiosk_aao"
        }
    ],
    "materials" : [
        {
            "doubleSided" : true,
            "emissiveFactor" : [
                0,
                0,
                0
            ],
            "name" : "zu_kiosk_aao",
            "pbrMetallicRoughness" : {
                "baseColorTexture" : {
                    "index" : 0,
                    "texCoord" : 0
                },
                "metallicFactor" : 0,
                "roughnessFactor" : 0.5
            }
        }
    ],
    "meshes" : [
        {
            "name" : "zu_kiosk_aao",
            "primitives" : [
                {
                    "attributes" : {
                        "POSITION" : 0,
                        "NORMAL" : 1,
                        "TEXCOORD_0" : 2
                    },
                    "indices" : 3,
                    "material" : 0
                }
            ]
        }
    ],
    "textures" : [
        {
            "sampler" : 0,
            "source" : 0
        }
    ],
    "images" : [
        {
            "bufferView" : 4,
            "mimeType" : "image/png",
            "name" : "zu_kiosk_aao"
        }
    ],
    "accessors" : [
        {
            "bufferView" : 0,
            "componentType" : 5126,
            "count" : 1589,
            "max" : [
                1.6875,
                1.0625001192092896,
                1.6875
            ],
            "min" : [
                -1.6875,
                -2,
                -1.6875
            ],
            "type" : "VEC3"
        },
        {
            "bufferView" : 1,
            "componentType" : 5126,
            "count" : 1589,
            "type" : "VEC3"
        },
        {
            "bufferView" : 2,
            "componentType" : 5126,
            "count" : 1589,
            "type" : "VEC2"
        },
        {
            "bufferView" : 3,
            "componentType" : 5123,
            "count" : 2412,
            "type" : "SCALAR"
        }
    ],
    "bufferViews" : [
        {
            "buffer" : 0,
            "byteLength" : 19068,
            "byteOffset" : 0
        },
        {
            "buffer" : 0,
            "byteLength" : 19068,
            "byteOffset" : 19068
        },
        {
            "buffer" : 0,
            "byteLength" : 12712,
            "byteOffset" : 38136
        },
        {
            "buffer" : 0,
            "byteLength" : 4824,
            "byteOffset" : 50848
        },
        {
            "buffer" : 0,
            "byteLength" : 1828,
            "byteOffset" : 55672
        }
    ],
    "samplers" : [
        {
            "magFilter" : 9728,
            "minFilter" : 9984
        }
    ],
    "buffers" : [
        {
            "byteLength" : 57500,
            "uri" : "data:application/octet-stream;base64,"
        }
    ]
}
